<svg xmlns="http://www.w3.org/2000/svg" width="15" height="15" fill="none"><path fill="#1ABCFE" fill-rule="evenodd" d="M5.62 7.5a2.5 2.5 0 1 1 5 0 2.5 2.5 0 0 1-5 0Z" clip-rule="evenodd"/><path fill="#0ACF83" fill-rule="evenodd" d="M.62 12.5a2.5 2.5 0 0 1 2.5-2.5h2.5v2.5a2.5 2.5 0 0 1-5 0Z" clip-rule="evenodd"/><path fill="#FF7262" fill-rule="evenodd" d="M5.62 0v5h2.5a2.5 2.5 0 0 0 0-5h-2.5Z" clip-rule="evenodd"/><path fill="#F24E1E" fill-rule="evenodd" d="M.62 2.5A2.5 2.5 0 0 0 3.12 5h2.5V0h-2.5a2.5 2.5 0 0 0-2.5 2.5Z" clip-rule="evenodd"/><path fill="#A259FF" fill-rule="evenodd" d="M.62 7.5a2.5 2.5 0 0 0 2.5 2.5h2.5V5h-2.5a2.5 2.5 0 0 0-2.5 2.5Z" clip-rule="evenodd"/></svg>