<svg xmlns="http://www.w3.org/2000/svg" width="21" height="17" fill="none"><path fill="#FBBC05" d="M.75 15.322c0 .705.576 1.276 1.286 1.276h.018c-.72 0-1.304-.57-1.304-1.276ZM11.8 5.43v3.332l4.493-3.623V1.92c0-.705-.576-1.276-1.286-1.276H5.274L5.265 5.43h6.536Z"/><path fill="#34A853" d="M11.8 12.096H5.256L5.247 16.6h9.76a1.28 1.28 0 0 0 1.287-1.277v-2.906L11.8 8.764v3.332Z"/><path fill="#EA4335" d="M5.274.644.75 5.43h4.517L5.274.644Z"/><path fill="#1967D2" d="M.75 12.096v3.226c0 .705.584 1.276 1.304 1.276h3.193l.008-4.502H.75Z"/><path fill="#4285F4" d="M5.267 5.43H.75v6.666h4.505l.012-6.666Z"/><path fill="#34A853" d="M20.244 14.187V3.232c-.254-1.454-1.848.213-1.848.213l-2.102 1.694v7.276l3.008 2.446c1.086.142.942-.674.942-.674Z"/><path fill="#188038" d="m11.8 8.762 4.494 3.654V5.14l-4.493 3.622Z"/></svg>