<svg xmlns="http://www.w3.org/2000/svg" width="15" height="15" fill="none"><path fill="#00005B" d="M0 5.342c0-1.87 0-2.805.364-3.52.32-.627.83-1.138 1.459-1.458C2.537 0 3.472 0 5.342 0h4.076c1.87 0 2.805 0 3.52.364.627.32 1.138.83 1.458 1.459.364.714.364 1.649.364 3.519v4.076c0 1.87 0 2.805-.364 3.52a3.339 3.339 0 0 1-1.459 1.458c-.714.364-1.649.364-3.519.364H5.342c-1.87 0-2.805 0-3.52-.364a3.339 3.339 0 0 1-1.458-1.459C0 12.223 0 11.288 0 9.418V5.342Z"/><path fill="#99F" d="M3.163 10.435V3.8c0-.046.018-.071.062-.071.637 0 1.274-.039 1.912-.039 1.034 0 2.155.36 2.547 1.464.093.27.142.548.142.838 0 .555-.123 1.013-.37 1.374-.69 1.008-1.884.993-2.955.993v2.07c.009.061-.042.09-.092.09H3.237c-.05 0-.074-.026-.074-.084Zm1.345-5.462V7.14c.424.032.868.035 1.276-.103.45-.133.697-.53.697-1.006.013-.406-.204-.795-.573-.942-.403-.17-.965-.18-1.4-.116ZM8.662 5.383h1.083c.06 0 .113.044.129.104.08.184.089.406.09.605.185-.226.409-.414.66-.555.269-.16.574-.24.883-.234.051-.008.097.04.09.093v1.257c0 .048-.034.072-.1.072-.458-.033-1.171.08-1.504.457v3.266c0 .063-.027.094-.08.094H8.752c-.057.008-.108-.045-.1-.104V6.891c0-.475.01-.964-.06-1.435-.01-.044.03-.084.07-.073Z"/></svg>