<svg xmlns="http://www.w3.org/2000/svg" width="18" height="19" fill="none"><path fill="#fff" fill-rule="evenodd" d="M2 .482a2 2 0 0 0-2 2v14a2 2 0 0 0 2 2h14a2 2 0 0 0 2-2v-14a2 2 0 0 0-2-2H2Z" clip-rule="evenodd"/><path fill="#4353FF" fill-rule="evenodd" d="M2 .482a2 2 0 0 0-2 2v14a2 2 0 0 0 2 2h14a2 2 0 0 0 2-2v-14a2 2 0 0 0-2-2H2Zm10.401 7.343-1.053 3.182c-.245-1.842-.492-3.683-.742-5.525-1.658 0-2.544 1.137-3.013 2.336l-1.282 3.196c-.008-.229-.18-3.161-.18-3.161-.102-1.47-1.5-2.365-2.631-2.365l1.37 7.994c1.736-.007 2.673-1.137 3.163-2.336 0 0 1.046-2.6 1.088-2.718.008.111.75 5.054.75 5.054 1.745 0 2.681-1.06 3.185-2.218L15.5 5.489c-1.723 0-2.63 1.13-3.099 2.336Z" clip-rule="evenodd"/></svg>