<svg xmlns="http://www.w3.org/2000/svg" width="17" height="18" fill="none"><path fill="#126FC2" d="M1.125 8.768c0 2.923 1.7 5.44 4.158 6.636L1.765 5.768a7.35 7.35 0 0 0-.64 3.001ZM8.5 16.143c.857 0 1.68-.15 2.452-.418l-.052-.098-2.27-6.212-2.21 6.428c.655.196 1.354.3 2.08.3ZM9.513 5.31l2.668 7.931.739-2.458c.314-1.02.556-1.752.556-2.387 0-.915-.327-1.543-.602-2.027-.379-.614-.726-1.13-.726-1.732 0-.68.51-1.308 1.243-1.308h.091A7.35 7.35 0 0 0 8.5 1.393a7.369 7.369 0 0 0-6.16 3.321l.472.013c.771 0 1.961-.098 1.961-.098.405-.02.451.562.052.608 0 0-.398.053-.85.072L6.67 13.3l1.615-4.838-1.15-3.152a13.147 13.147 0 0 1-.772-.065c-.399-.026-.353-.634.046-.615 0 0 1.216.098 1.942.098.771 0 1.961-.098 1.961-.098.399-.02.451.562.053.608 0 0-.4.046-.85.072Zm2.694 9.834a7.376 7.376 0 0 0 2.766-9.912 6.964 6.964 0 0 1-.51 3.4l-2.256 6.512ZM8.5 17.268a8.5 8.5 0 1 1 0-17 8.5 8.5 0 0 1 0 17Z"/></svg>