<svg xmlns="http://www.w3.org/2000/svg" width="15" height="15" fill="none"><path fill="#300" d="M.24 5.342c0-1.87 0-2.805.364-3.52.32-.627.83-1.138 1.459-1.458C2.777 0 3.712 0 5.582 0h4.076c1.87 0 2.805 0 3.52.364.627.32 1.138.83 1.458 1.459C15 2.537 15 3.472 15 5.342v4.076c0 1.87 0 2.805-.364 3.52a3.339 3.339 0 0 1-1.459 1.458c-.714.364-1.649.364-3.519.364H5.582c-1.87 0-2.805 0-3.52-.364a3.339 3.339 0 0 1-1.458-1.459C.24 12.223.24 11.288.24 9.418V5.342Z"/><path fill="#FF9A00" d="M7.393 9.276H5.105l-.465 1.482a.118.118 0 0 1-.119.092H3.363c-.066 0-.09-.037-.07-.112l1.98-5.85c.02-.06.04-.13.06-.208.026-.135.04-.273.04-.41-.006-.042.03-.078.069-.072h1.574c.047 0 .073.017.08.05l2.247 6.5c.02.068 0 .102-.06.102H7.998a.093.093 0 0 1-.1-.071l-.504-1.503Zm-1.931-1.28h1.564c-.257-.878-.547-1.745-.782-2.63-.254.887-.53 1.77-.782 2.63ZM10.68 5.274a.703.703 0 0 1-.545-.223.808.808 0 0 1-.208-.579.763.763 0 0 1 .223-.563.762.762 0 0 1 .55-.219c.237 0 .424.073.559.219a.787.787 0 0 1 .203.563.814.814 0 0 1-.213.58.759.759 0 0 1-.57.222Zm-.683 5.474V5.894c0-.061.026-.091.079-.091h1.218c.052 0 .079.03.079.091v4.854c0 .068-.026.102-.08.102h-1.207c-.06 0-.09-.034-.09-.102Z"/></svg>