<svg xmlns="http://www.w3.org/2000/svg" width="20" height="21" fill="none"><g clip-path="url(#a)"><path fill="#FF4A00" d="M10 20.482c5.523 0 10-4.477 10-10s-4.477-10-10-10-10 4.477-10 10 4.477 10 10 10Z"/><path fill="#fff" d="M11.25 10.484c0 .36-.065.718-.192 1.055a2.992 2.992 0 0 1-1.056.193h-.004c-.36 0-.718-.065-1.055-.192a2.991 2.991 0 0 1-.193-1.056v-.004c0-.36.065-.717.192-1.055a2.991 2.991 0 0 1 1.056-.193h.004c.36 0 .718.065 1.056.192.127.338.192.695.192 1.055v.005Zm3.68-.835h-2.918l2.064-2.064a5.029 5.029 0 0 0-1.179-1.178L10.833 8.47V5.552a5.032 5.032 0 0 0-.83-.07h-.006c-.278 0-.556.024-.83.07V8.47L7.103 6.407a5.027 5.027 0 0 0-1.178 1.178l2.063 2.064H5.07s-.07.548-.07.832v.003c0 .279.023.557.07.832h2.918l-2.064 2.063c.325.456.723.854 1.179 1.179l2.064-2.064v2.919c.274.046.551.069.83.07h.007c.278-.001.555-.024.83-.07v-2.92l2.063 2.065a5.038 5.038 0 0 0 1.178-1.179l-2.063-2.063h2.918c.046-.275.07-.552.07-.83v-.008c0-.277-.024-.555-.07-.83Z"/></g><defs><clipPath id="a"><path fill="#fff" d="M0 .482h20v20H0z"/></clipPath></defs></svg>