<svg xmlns="http://www.w3.org/2000/svg" width="18" height="19" fill="none"><path fill="#000" d="M3.682 3.867c.55.448.757.414 1.792.344l9.759-.585c.207 0 .034-.207-.034-.241l-1.622-1.172c-.31-.24-.724-.517-1.517-.448l-9.448.69c-.344.033-.414.206-.277.344l1.347 1.068Zm.585 2.274V16.41c0 .551.276.758.897.723l10.724-.62c.62-.034.69-.414.69-.862V5.452c0-.448-.172-.69-.552-.655l-11.207.655c-.414.034-.552.242-.552.69Zm10.587.55c.069.31 0 .62-.31.656l-.517.104v7.579c-.449.241-.863.38-1.207.38-.553 0-.69-.173-1.104-.69l-3.38-5.306v5.134l1.07.242s0 .62-.863.62l-2.38.137c-.068-.137 0-.482.242-.55l.62-.172V8.036l-.86-.07c-.07-.31.103-.757.585-.791l2.552-.173 3.518 5.375V7.622l-.897-.103c-.069-.38.207-.655.552-.689l2.379-.138ZM1.819 1.525 11.647.8c1.207-.103 1.517-.034 2.276.517l3.137 2.205c.517.38.69.482.69.896v12.094c0 .758-.275 1.206-1.24 1.274l-11.415.69c-.724.035-1.07-.069-1.449-.552l-2.31-2.997c-.414-.552-.586-.965-.586-1.448V2.73c0-.62.276-1.137 1.069-1.205Z"/></svg>